<?xml version="1.0" encoding="UTF-8" standalone="no"?>
<!-- Created with Inkscape (http://www.inkscape.org/) -->

<svg
   version="1.1"
   id="svg1"
   width="717.76001"
   height="294.39999"
   viewBox="0 0 717.76001 294.39999"
   sodipodi:docname="DRWLogo_black_w_yellow.svg"
   inkscape:version="1.3.2 (091e20e, 2023-11-25)"
   xmlns:inkscape="http://www.inkscape.org/namespaces/inkscape"
   xmlns:sodipodi="http://sodipodi.sourceforge.net/DTD/sodipodi-0.dtd"
   xmlns="http://www.w3.org/2000/svg"
   xmlns:svg="http://www.w3.org/2000/svg">
  <defs
     id="defs1" />
  <sodipodi:namedview
     id="namedview1"
     pagecolor="#ffffff"
     bordercolor="#000000"
     borderopacity="0.25"
     inkscape:showpageshadow="2"
     inkscape:pageopacity="0.0"
     inkscape:pagecheckerboard="0"
     inkscape:deskcolor="#d1d1d1"
     inkscape:zoom="1.5873809"
     inkscape:cx="347.11265"
     inkscape:cy="195.29024"
     inkscape:window-width="2560"
     inkscape:window-height="1387"
     inkscape:window-x="0"
     inkscape:window-y="25"
     inkscape:window-maximized="1"
     inkscape:current-layer="g1" />
  <g
     inkscape:groupmode="layer"
     inkscape:label="Image"
     id="g1">
    <ellipse
       style="fill:#f9ee18;fill-opacity:1;stroke:none;stroke-width:4.34904;stroke-dasharray:none"
       id="path2"
       cx="130.18784"
       cy="147.43149"
       rx="80.77327"
       ry="79.744987" />
    <path
       style="fill:#000000"
       d="M 125.6,293.75275 C 124.896,293.39705 96.821688,277.23316 63.212639,257.83301 7.234166,225.52055 2.0236402,222.44353 1.132638,221.17243 L 0.16,219.78486 V 147.2 74.61513 L 1.1326161,73.22756 C 2.0239112,71.95601 7.2947248,68.84558 64.172617,36.02618 130.73553,-2.38163 127.5058,-0.63536 130.2827,0.2814 c 0.59251,0.19562 28.8693,16.3909 62.8373,35.98952 60.79023,35.07432 61.77508,35.65807 62.72,37.17637 l 0.96,1.54252 V 147.2 219.41018 l -0.96,1.54228 c -0.94442,1.51725 -1.94402,2.11052 -61.6,36.56028 -33.352,19.25991 -61.504,35.43848 -62.56,35.95238 -2.30715,1.12277 -4.24561,1.21448 -6.08,0.28763 z m 60.48,-46.68508 57.6,-33.24281 V 147.19906 80.57325 L 186.0543,47.32574 128.4286,14.07823 70.854302,47.29487 13.28,80.51151 v 66.68859 66.6886 l 57.440001,33.18272 C 102.312,265.32192 128.232,280.26681 128.32,280.2823 c 0.088,0.0155 26.08,-14.93109 57.76,-33.21463 z M 121.92,228.78121 C 106.4304,227.09499 91.43752,220.89422 79.396024,211.19411 75.390521,207.96745 68.605847,200.98131 65.662007,197.05227 57.415052,186.04535 52.131868,173.43209 50.008267,159.68 49.132899,154.01126 49.226602,141.43911 50.185811,135.85875 53.153115,118.59596 60.816504,103.45685 72.632225,91.51563 84.834794,79.18344 99.72056,71.49148 117.28,68.44465 c 5.51691,-0.95726 16.3791,-1.18786 22.24,-0.47214 34.29828,4.18844 62.10328,29.25403 69.59306,62.73659 1.43468,6.41364 1.84531,10.32076 1.85086,17.6109 0.006,7.71618 -0.64357,13.00185 -2.476,20.15152 -5.22239,20.37638 -18.8087,38.4728 -37.02221,49.3121 -8.72086,5.19 -19.18447,8.92793 -29.54571,10.55467 -3.82586,0.60067 -16.06173,0.87165 -20,0.44292 z m 16.64,-8.98472 c 12.60592,-1.34306 26.27971,-7.04242 36.48,-15.20521 13.12799,-10.50568 22.45941,-25.74693 25.73356,-42.03128 3.70348,-18.41968 0.0681,-37.70687 -10.02451,-53.18453 -11.64093,-17.85206 -29.71217,-29.38202 -50.89037,-32.46948 -5.07584,-0.73998 -14.61524,-0.73531 -19.53868,0.01 -12.36949,1.87139 -23.454395,6.40042 -32.822248,13.41039 -17.529362,13.11722 -27.896193,32.12324 -29.227779,53.58472 -1.302422,20.99143 6.533686,41.13127 21.774866,55.96429 5.591401,5.44166 10.680407,9.09567 17.439786,12.5221 13.059655,6.62015 26.189525,8.9854 41.075375,7.39944 z M 126.4,190.89257 c -0.264,-0.0632 -1.56,-0.28897 -2.88,-0.50172 -14.44605,-2.32834 -27.534976,-13.5477 -32.754621,-28.07608 -2.205505,-6.13881 -2.91566,-15.14212 -1.712981,-21.71707 3.385269,-18.50699 18.381642,-32.64696 37.126602,-35.0064 3.01435,-0.37942 9.26542,-0.33547 9.66761,0.068 0.12023,0.1206 -0.0481,0.9846 -0.37401,1.92 -0.46815,1.34358 -0.58893,2.60792 -0.57511,6.02073 0.0155,3.82694 0.11335,4.58789 0.85741,6.66717 1.16156,3.246 2.6057,5.54547 5.0451,8.03318 6.41671,6.54381 16.09081,8.26186 24.31856,4.31882 1.28341,-0.61506 2.87349,-1.54599 3.53351,-2.06873 0.66002,-0.52274 1.27684,-0.95044 1.37072,-0.95044 0.30192,0 2.14455,5.08915 2.93647,8.11021 3.10705,11.85298 0.79486,24.65596 -6.33041,35.05249 -0.91787,1.33926 -3.10885,3.8846 -4.86885,5.65631 -5.96179,6.00145 -13.08355,9.92607 -21.47162,11.83245 -2.0162,0.45823 -12.60951,0.94723 -13.88838,0.64111 z m 11.44479,-43.6542 c 5.32446,-2.71634 5.66261,-10.48254 0.59289,-13.6169 -1.96663,-1.21588 -4.92944,-1.4989 -7.08266,-0.67658 -1.85046,0.7067 -4.08847,3.18304 -4.63238,5.12569 -0.83076,2.96719 0.32732,6.52814 2.71547,8.34967 2.3597,1.79983 5.82191,2.13677 8.40668,0.81812 z m 438.95522,131.00154 c -11.09665,-1.95131 -20.67726,-7.57546 -26.90356,-15.79332 -2.50774,-3.30987 -5.57267,-9.38803 -6.66978,-13.22708 -2.36495,-8.27548 -2.36216,-18.54316 0.007,-26.75903 1.01022,-3.50288 3.37423,-8.48957 5.57987,-11.77028 2.21174,-3.28981 7.15117,-8.20287 10.38619,-10.33075 4.72938,-3.11082 9.90113,-5.26487 15.84612,-6.59993 3.7281,-0.83722 13.49313,-1.02078 17.61735,-0.33116 10.20869,1.70701 18.52029,7.02574 24.31589,15.56014 1.50338,2.21384 4.14064,7.15667 4.14064,7.76053 0,0.29533 -18.0582,9.45574 -20.46213,10.37986 -0.12718,0.0489 -0.39605,-0.45511 -0.59749,-1.12 -0.91651,-3.02511 -4.70846,-7.35366 -8.02185,-9.15704 -6.15753,-3.35135 -14.84886,-1.79123 -20.15749,3.61832 -8.01543,8.16781 -8.03339,22.71757 -0.0379,30.7101 5.52421,5.52218 13.92821,7.01687 20.29292,3.60919 2.54669,-1.3635 5.92591,-4.94304 7.23262,-7.66137 0.61124,-1.27154 1.22517,-2.31554 1.3643,-2.32 0.55157,-0.0177 20.38704,9.71541 20.38704,10.00372 0,0.16968 -0.73583,1.71558 -1.63518,3.43532 -5.23654,10.01342 -13.39901,16.63774 -23.94121,19.42969 -2.71125,0.71804 -3.81811,0.82297 -9.62361,0.91231 -4.62034,0.0711 -7.31694,-0.0322 -9.12,-0.34922 z m -125.43229,-1.19992 c -0.10495,-0.31754 -1.80268,-6.14497 -2.61131,-8.96327 -0.15163,-0.5285 -1.04359,-0.55814 -14.44332,-0.48 l -14.2817,0.0833 -1.35075,4.58839 c -0.74291,2.52362 -1.41153,4.64918 -1.48583,4.72348 -0.0743,0.0743 -6.24332,0.0975 -13.70895,0.0516 l -13.57386,-0.0835 10.47171,-29.6 c 5.75944,-16.27999 12.37763,-34.98708 14.70708,-41.57129 l 4.23537,-11.97129 15.03646,0.20683 c 8.27005,0.11375 15.1395,0.31684 15.26545,0.45129 0.2008,0.21438 28.63478,80.9604 29.01798,82.40446 0.13982,0.52691 -0.658,0.56 -13.49876,0.56 -10.63406,0 -13.67656,-0.0883 -13.77957,-0.4 z m -9.45699,-32.48 c -0.4876,-1.4497 -7.35072,-25.03231 -7.35072,-25.25806 0,-0.11473 -0.0617,-0.1469 -0.13712,-0.0715 -0.10733,0.10733 -4.25266,13.96706 -7.38443,24.68954 l -0.44396,1.52 h 7.80611 7.8061 z m 52.48928,2.16 V 216 h -10.56 -10.56 v -10.88 -10.88 h 33.28 33.28 v 10.87568 10.87569 l -10.64,0.0843 -10.64,0.0843 -0.0816,30.63999 -0.0816,30.64 H 506.3984 494.40001 Z m 137.38734,5.70713 c 0.11696,-13.75708 0.21266,-32.47708 0.21266,-41.6 V 194.24 h 12 12 v 14.72 14.72 h 14.24 14.24 v -14.7239 -14.72389 l 11.92,0.0839 11.92,0.0839 0.0812,41.52 0.0812,41.51999 h -12.0012 -12.0012 V 261.6 245.76 h -14.24 -14.24 v 15.84 15.84 H 643.78735 631.5747 Z m -328.91229,24.29287 c -0.0797,-0.22 -5.12173,-18.688 -11.20458,-41.03999 -6.08285,-22.352 -11.13535,-40.89357 -11.22778,-41.20349 -0.15885,-0.53267 0.57197,-0.55893 13.35956,-0.48 l 13.5276,0.0835 5.02327,24.96 c 2.7628,13.728 5.0477,25.03199 5.07754,25.11999 0.0298,0.088 2.75565,-11.14399 6.05735,-24.95999 l 6.00309,-25.12 9.10015,-0.0848 9.10014,-0.0848 5.90535,25.10706 c 3.24794,13.80889 5.98138,25.03204 6.0743,24.94033 0.0929,-0.0917 2.40774,-11.35173 5.14403,-25.02228 l 4.97507,-24.85554 13.50493,-0.0835 c 8.75402,-0.0541 13.50493,0.028 13.50493,0.23329 0,0.3168 -21.81284,79.88317 -22.43994,81.85383 l -0.33211,1.04365 -12.67243,-0.0837 -12.67244,-0.0836 -5.02575,-23.2 C 340.89317,241 338.54658,230.776 338.44269,231.04 c -0.10389,0.264 -2.21492,9.768 -4.69119,21.11999 -2.47626,11.352 -4.72291,21.612 -4.99255,22.8 l -0.49024,2.16 h -12.6244 c -9.80892,0 -12.6567,-0.0892 -12.76925,-0.4 z m 373.70141,-93.03808 c -9.06486,-0.95715 -16.98276,-3.6417 -23.45646,-7.95288 -2.95412,-1.9673 -6.16434,-4.8085 -5.97804,-5.29084 0.0761,-0.19701 2.82504,-4.43526 6.10878,-9.41833 l 5.97043,-9.06014 1.66941,1.50101 c 5.65992,5.08895 12.9029,8.31566 20.39098,9.08409 4.87576,0.50034 8.95078,-0.2442 10.78917,-1.97127 1.03039,-0.968 1.28597,-2.66161 0.52804,-3.49911 -1.33682,-1.47717 -2.95136,-1.98444 -11.97512,-3.76249 -3.61699,-0.7127 -7.86499,-1.66915 -9.44,-2.12545 -10.08178,-2.92085 -16.00477,-7.23439 -19.18097,-13.96893 -1.53117,-3.24657 -2.08634,-5.59573 -2.3066,-9.76024 -0.42352,-8.0077 1.8404,-14.36008 7.08656,-19.88431 4.07064,-4.2864 9.10732,-7.06475 15.49712,-8.54858 7.60785,-1.76669 18.71683,-1.09858 27.10093,1.62988 4.9407,1.60787 11.26304,5.04553 14.82947,8.06327 l 1.09017,0.92244 -6.30629,8.85998 c -3.46845,4.873 -6.36412,8.85999 -6.43483,8.85999 -0.0707,0 -1.03545,-0.63076 -2.14388,-1.40169 -5.83583,-4.05891 -13.64235,-6.59831 -20.2842,-6.59831 -3.54577,0 -5.35882,0.58121 -6.06342,1.94377 -0.68613,1.32683 -0.57644,2.15673 0.41629,3.14946 1.16878,1.16878 3.83637,2.02055 11.14598,3.55899 7.14503,1.50379 10.76924,2.50251 14.69002,4.04813 12.27755,4.83995 17.8887,13.74405 16.55068,26.26361 -0.46853,4.38398 -1.06541,6.64659 -2.59477,9.83604 -3.92616,8.18794 -11.05332,13.10854 -21.80843,15.05657 -3.24598,0.58793 -12.23662,0.85121 -15.89102,0.46534 z m -236.70165,-0.3419 c -9.99601,-1.15987 -18.41835,-5.24302 -25.31481,-12.27262 -5.07463,-5.17259 -7.8988,-10.00927 -9.91906,-16.98739 -1.75224,-6.05242 -2.27513,-14.53703 -1.29172,-20.96 2.7746,-18.12177 14.74182,-30.70956 32.91049,-34.61711 4.42764,-0.95226 13.71947,-1.03337 17.82029,-0.15555 11.16359,2.38966 19.37826,8.55567 25.0806,18.82574 l 1.18437,2.13308 -4.09249,2.23065 c -2.25086,1.22686 -6.74633,3.676 -9.98992,5.44254 l -5.89744,3.2119 -1.13878,-1.92501 c -3.46202,-5.85221 -9.59835,-9.11378 -15.58112,-8.28166 -5.79834,0.80648 -10.04432,3.39946 -13.01614,7.94883 -1.77817,2.72209 -2.60275,4.70962 -3.24146,7.8131 -2.22263,10.79963 2.98603,21.38583 12.09811,24.58847 2.80666,0.98646 5.89382,1.31084 8.74691,0.91907 3.00191,-0.41221 6.84916,-1.6438 8.48736,-2.717 1.09149,-0.71505 1.2,-0.91593 1.2,-2.22159 V 154.88 h -7.2 -7.2 V 143.84 132.8 h 19.04 19.04 v 17.16471 17.16472 l -3.28965,3.23528 c -5.83552,5.73909 -12.76139,9.80178 -19.99235,11.72743 -5.30106,1.41171 -12.71062,1.91304 -18.44319,1.24787 z m 57.96519,-1.17923 -4.4,-0.0988 V 140.43097 98.8 l 1,0.2 c 0.55,0.11 5.87654,0.2 11.83677,0.2 h 10.83677 l 0.0832,14.64 0.0832,14.64 h 13.92 13.92 l 0.0832,-14.64 0.0832,-14.64 h 11.83678 11.83677 v 41.6 41.6 h -11.83702 -11.83701 l -0.083,-15.92 -0.083,-15.92 -14,-0.0834 -14,-0.0834 V 166.39663 182.4 l -7.44,-0.0702 c -4.092,-0.0386 -9.42,-0.11467 -11.84,-0.16903 z m 101.84,-30.48078 v -30.72 h -10.4 -10.4 V 110.08 99.2 h 32.85096 32.85096 l -0.21018,6.96 c -0.11559,3.828 -0.21052,8.796 -0.21096,11.04 l -7.8e-4,4.08 h -10.4 -10.4 v 30.56 30.56 h -11.84 -11.84 z M 288.32,140.46655 V 98.85311 l 23.76,0.10173 c 23.45682,0.10043 23.79267,0.11085 26.32,0.81669 11.48181,3.20668 18.38315,11.7327 19.70341,24.34188 0.78637,7.51025 -0.90544,14.77183 -4.75826,20.42343 -1.57682,2.31299 -4.77738,5.40556 -7.19458,6.95182 -1.00681,0.64405 -1.83057,1.21318 -1.83057,1.26473 0,0.0516 2.3917,5.05113 5.31487,11.11017 2.92318,6.05904 6.08119,12.63644 7.01781,14.61644 l 1.70295,3.6 h -13.50636 -13.50636 l -2.9813,-7.28 c -1.63972,-4.004 -4.0645,-9.908 -5.3884,-13.12 l -2.40709,-5.84 H 316.28306 312 v 13.12 13.12 h -11.84 -11.84 z m 41.3253,-7.07793 c 1.701,-0.50963 3.66658,-2.27131 4.14362,-3.71377 0.48411,-1.46387 0.45951,-3.95201 -0.0489,-4.94142 -0.73464,-1.4298 -2.35306,-2.80653 -3.95586,-3.36511 -1.38544,-0.48284 -2.80012,-0.56621 -9.62419,-0.56718 l -8,-0.001 -0.0866,6.48 -0.0866,6.48 h 8.2095 c 5.30479,0 8.64808,-0.13141 9.44905,-0.37138 z m 39.63471,7.09138 v -41.6 h 11.84 11.84 v 41.6 41.6 h -11.84 -11.84 z m 69.6,-52.1825 c -18.62384,-2.21492 -32.25732,-15.90285 -35.06736,-35.20743 -0.55066,-3.783 -0.47704,-12.26494 0.13866,-15.97388 1.05174,-6.33567 3.49098,-12.6658 6.79669,-17.63831 4.49717,-6.7647 12.21072,-12.48362 20.2203,-14.99157 9.26374,-2.90066 20.34015,-2.48902 27.97772,1.03975 7.04414,3.25459 13.11319,9.28973 16.83846,16.74435 l 0.97467,1.95041 -9.49957,5.45348 -9.49957,5.45349 -1.09747,-2.07434 c -2.23442,-4.22332 -6.44096,-7.39886 -10.77344,-8.13296 -6.59501,-1.11746 -13.94655,3.02102 -17.21884,9.69319 -4.13049,8.422 -2.96913,19.5846 2.69925,25.94438 5.37128,6.02644 13.96813,7.41155 21.7765,3.50857 l 2.374,-1.18663 v -1.6 -1.6 l -6.8,-0.0864 -6.8,-0.0864 V 48.63363 37.76 h 18.08 18.08 v 17.08514 17.08513 l -3.28,3.3575 c -6.6572,6.81448 -13.48564,10.65711 -22.03336,12.39902 -3.76174,0.7666 -10.19644,1.04958 -13.88664,0.61071 z m 110.16,-1.17726 -8.24,-0.091 V 56.4746 25.92 h -9.92 -9.92 V 14.82744 3.73488 l 21.84,0.2123 c 12.012,0.11677 25.98,0.21242 31.04,0.21256 l 9.2,2.6e-4 v 10.88 10.88 h -9.71305 -9.71304 l -0.20696,2.44828 c -0.11382,1.34655 -0.20695,15.17055 -0.20695,30.72 V 87.36 l -2.96,-0.0744 c -1.628,-0.0409 -6.668,-0.11533 -11.2,-0.1654 z M 580.0356,80.08 c 1.3009,-4.004 7.44888,-22.688 13.66215,-41.52 l 11.29687,-34.24 14.22269,-0.0804 14.2227,-0.0804 13.41016,41.04041 c 7.37558,22.57222 13.47681,41.29408 13.55829,41.60411 0.13989,0.53235 -0.56129,0.55905 -12.60311,0.48 L 635.0541,87.2 l -1.30976,-4.8 -1.30976,-4.8 -13.07765,-0.0836 c -7.1927,-0.046 -13.19667,0.0354 -13.34214,0.18086 -0.14548,0.14548 -0.77158,2.12712 -1.39134,4.40365 -0.61976,2.27652 -1.20328,4.39113 -1.29671,4.69913 -0.15806,0.52112 -1.05473,0.56 -12.91315,0.56 h -12.74328 z m 46.20929,-24.8 c 0.008,-0.62982 -6.86612,-25.8385 -7.04488,-25.8361 -0.18595,0.002 -7.07704,25.23887 -7.05486,25.8361 0.0114,0.30743 1.64411,0.4 7.05486,0.4 5.41606,0 7.04112,-0.0923 7.04488,-0.4 z m 39.67512,-9.52 V 4.16 h 11.2 11.2 v 30.56 30.56 h 14.08 14.08 v 11.04 11.04 h -25.28 -25.28 z M 288.55764,86.8 c -0.0661,-0.132 -0.0586,-18.852 0.0165,-41.6 l 0.13666,-41.36 18.76459,0.002 c 20.27515,0.002 22.02441,0.11277 27.72459,1.755 1.584,0.45635 4.32957,1.53338 6.10125,2.39341 13.53024,6.56792 20.96299,19.88955 20.93251,37.51709 -0.0212,12.26794 -3.69659,22.33828 -10.8859,29.82683 -6.24664,6.50665 -15.03942,10.47904 -25.16036,11.36692 -4.31108,0.37819 -37.44646,0.46525 -37.62986,0.0989 z m 37.12565,-22.32178 c 9.29569,-2.19168 15.12099,-12.03853 13.53572,-22.88024 -1.28193,-8.76718 -6.02792,-14.16681 -13.64485,-15.52409 -1.56474,-0.27882 -4.82941,-0.45583 -8.53416,-0.46273 l -6,-0.0112 v 19.68 19.68 l 6.32,-0.005 c 4.43917,-0.003 6.91618,-0.14529 8.32329,-0.47705 z M 371.52001,45.44 V 3.84 h 11.2 11.2 v 41.6 41.6 h -11.2 -11.2 z m 117.76,0 V 3.84 h 11.2 11.2 v 41.6 41.6 h -11.2 -11.2 z"
       id="path1" />
  </g>
</svg>
