<?xml version="1.0" encoding="UTF-8"?>
<svg width="40mm" height="40mm" version="1.1" viewBox="0 0 40 40" xml:space="preserve" xmlns="http://www.w3.org/2000/svg"><g stroke-width=".454"><path d="m20.3 2.38-15.5 8.92v17.8l15.5 8.92 15.5-8.92v-17.8zm0 1.84 13.9 8v16l-13.9 8-13.9-8v-16z"/><circle cx="20.3" cy="20.2" r="9.76"/><circle cx="20.3" cy="20.2" r="8.71" fill="#f9ee18"/><path d="m20.3 15a5.18 5.18 0 0 0-5.18 5.18 5.18 5.18 0 0 0 5.18 5.18 5.18 5.18 0 0 0 5.18-5.18 5.18 5.18 0 0 0-0.524-2.27 2.54 2.52 0 0 1-1.76 0.708 2.54 2.52 0 0 1-2.54-2.52 2.54 2.52 0 0 1 0.247-1.07 5.18 5.18 0 0 0-0.602-0.0366zm0.358 3.24a0.97 0.97 0 0 1 0.97 0.97 0.97 0.97 0 0 1-0.97 0.969 0.97 0.97 0 0 1-0.97-0.969 0.97 0.97 0 0 1 0.97-0.97z"/></g></svg>
