<?xml version="1.0" encoding="UTF-8" standalone="no"?>
<svg
   width="40mm"
   height="40mm"
   version="1.1"
   viewBox="0 0 39.999999 39.999999"
   xml:space="preserve"
   id="svg2"
   sodipodi:docname="drwaus.inkscape.svg"
   inkscape:version="1.3.2 (091e20e, 2023-11-25)"
   xmlns:inkscape="http://www.inkscape.org/namespaces/inkscape"
   xmlns:sodipodi="http://sodipodi.sourceforge.net/DTD/sodipodi-0.dtd"
   xmlns="http://www.w3.org/2000/svg"
   xmlns:svg="http://www.w3.org/2000/svg"><defs
     id="defs2" /><sodipodi:namedview
     id="namedview2"
     pagecolor="#ffffff"
     bordercolor="#000000"
     borderopacity="0.25"
     inkscape:showpageshadow="2"
     inkscape:pageopacity="0.0"
     inkscape:pagecheckerboard="0"
     inkscape:deskcolor="#d1d1d1"
     inkscape:document-units="mm"
     inkscape:zoom="8.0433334"
     inkscape:cx="75.590551"
     inkscape:cy="75.590551"
     inkscape:window-width="2560"
     inkscape:window-height="1387"
     inkscape:window-x="0"
     inkscape:window-y="25"
     inkscape:window-maximized="1"
     inkscape:current-layer="svg2" /><rect
     style="fill:none;stroke-width:0.454287"
     id="rect2"
     width="40"
     height="40"
     x="0"
     y="0" /><path
     d="M 20.294009,2.3759227 4.8427891,11.296763 v 17.84168 l 15.4512199,8.92084 15.451221,-8.92084 v -17.84168 z m 0,1.8407722 13.857127,8.0004541 V 28.217603 L 20.294009,36.218057 6.4368834,28.217603 V 12.217149 Z"
     id="path1"
     style="stroke-width:0.454287" /><circle
     cx="20.29401"
     cy="20.215784"
     r="9.7571831"
     id="circle1"
     style="stroke-width:0.454287" /><circle
     cx="20.29401"
     cy="20.215784"
     r="8.7055082"
     fill="#f9ee18"
     id="circle2"
     style="stroke-width:0.454287" /><path
     d="m 20.294009,15.03691 a 5.182964,5.182964 0 0 0 -5.182964,5.182964 5.182964,5.182964 0 0 0 5.182964,5.182964 5.182964,5.182964 0 0 0 5.182965,-5.182964 5.182964,5.182964 0 0 0 -0.523521,-2.267757 2.5411924,2.515616 0 0 1 -1.763044,0.708053 2.5411924,2.515616 0 0 1 -2.541283,-2.515435 2.5411924,2.515616 0 0 1 0.2472,-1.070982 5.182964,5.182964 0 0 0 -0.602158,-0.03662 z m 0.358242,3.243884 a 0.96954,0.96954 0 0 1 0.96954,0.96954 0.96954,0.96954 0 0 1 -0.96954,0.969313 0.96954,0.96954 0 0 1 -0.96954,-0.969313 0.96954,0.96954 0 0 1 0.96954,-0.96954 z"
     id="path2"
     style="stroke-width:0.454287" /></svg>
