<?xml version="1.0" encoding="UTF-8"?>
<!-- Created with Inkscape (http://www.inkscape.org/) -->
<svg width="717.76" height="294.4" version="1.1" viewBox="0 0 717.76 294.4" xmlns="http://www.w3.org/2000/svg">
 <ellipse cx="130.19" cy="147.43" rx="80.773" ry="79.745" fill="#f9ee18"/>
 <path d="m125.6 293.75c-0.704-0.3557-28.778-16.52-62.387-35.92-55.978-32.312-61.189-35.389-62.08-36.661l-0.97264-1.3876v-145.17l0.97262-1.3876c0.8913-1.2716 6.1621-4.382 63.04-37.201 66.563-38.408 63.333-36.662 66.11-35.745 0.59251 0.19562 28.869 16.391 62.837 35.99 60.79 35.074 61.775 35.658 62.72 37.176l0.96 1.5425v144.42l-0.96 1.5423c-0.94442 1.5172-1.944 2.1105-61.6 36.56-33.352 19.26-61.504 35.438-62.56 35.952-2.3072 1.1228-4.2456 1.2145-6.08 0.28763zm60.48-46.685 57.6-33.243v-133.25l-115.25-66.495-115.15 66.433v133.38l57.44 33.183c31.592 18.25 57.512 33.195 57.6 33.211 0.088 0.0155 26.08-14.931 57.76-33.215zm-64.16-18.286c-15.49-1.6862-30.482-7.887-42.524-17.587-4.0055-3.2267-10.79-10.213-13.734-14.142-8.247-11.007-13.53-23.62-15.654-37.372-0.87537-5.6687-0.78166-18.241 0.17754-23.821 2.9673-17.263 10.631-32.402 22.446-44.343 12.203-12.332 27.088-20.024 44.648-23.071 5.5169-0.95726 16.379-1.1879 22.24-0.47214 34.298 4.1884 62.103 29.254 69.593 62.737 1.4347 6.4136 1.8453 10.321 1.8509 17.611 6e-3 7.7162-0.64357 13.002-2.476 20.152-5.2224 20.376-18.809 38.473-37.022 49.312-8.7209 5.19-19.184 8.9279-29.546 10.555-3.8259 0.60067-16.062 0.87165-20 0.44292zm16.64-8.9847c12.606-1.3431 26.28-7.0424 36.48-15.205 13.128-10.506 22.459-25.747 25.734-42.031 3.7035-18.42 0.0681-37.707-10.025-53.185-11.641-17.852-29.712-29.382-50.89-32.469-5.0758-0.73998-14.615-0.73531-19.539 0.01-12.369 1.8714-23.454 6.4004-32.822 13.41-17.529 13.117-27.896 32.123-29.228 53.585-1.3024 20.991 6.5337 41.131 21.775 55.964 5.5914 5.4417 10.68 9.0957 17.44 12.522 13.06 6.6202 26.19 8.9854 41.075 7.3994zm-12.16-28.904c-0.264-0.0632-1.56-0.28897-2.88-0.50172-14.446-2.3283-27.535-13.548-32.755-28.076-2.2055-6.1388-2.9157-15.142-1.713-21.717 3.3853-18.507 18.382-32.647 37.127-35.006 3.0144-0.37942 9.2654-0.33547 9.6676 0.068 0.12023 0.1206-0.0481 0.9846-0.37401 1.92-0.46815 1.3436-0.58893 2.6079-0.57511 6.0207 0.0155 3.8269 0.11335 4.5879 0.85741 6.6672 1.1616 3.246 2.6057 5.5455 5.0451 8.0332 6.4167 6.5438 16.091 8.2619 24.319 4.3188 1.2834-0.61506 2.8735-1.546 3.5335-2.0687s1.2768-0.95044 1.3707-0.95044c0.30192 0 2.1446 5.0892 2.9365 8.1102 3.107 11.853 0.79486 24.656-6.3304 35.052-0.91787 1.3393-3.1088 3.8846-4.8688 5.6563-5.9618 6.0014-13.084 9.9261-21.472 11.832-2.0162 0.45823-12.61 0.94723-13.888 0.64111zm11.445-43.654c5.3245-2.7163 5.6626-10.483 0.59289-13.617-1.9666-1.2159-4.9294-1.4989-7.0827-0.67658-1.8505 0.7067-4.0885 3.183-4.6324 5.1257-0.83076 2.9672 0.32732 6.5281 2.7155 8.3497 2.3597 1.7998 5.8219 2.1368 8.4067 0.81812zm438.96 131c-11.097-1.9513-20.677-7.5755-26.904-15.793-2.5077-3.3099-5.5727-9.388-6.6698-13.227-2.365-8.2755-2.3622-18.543 7e-3 -26.759 1.0102-3.5029 3.3742-8.4896 5.5799-11.77 2.2117-3.2898 7.1512-8.2029 10.386-10.331 4.7294-3.1108 9.9011-5.2649 15.846-6.5999 3.7281-0.83722 13.493-1.0208 17.617-0.33116 10.209 1.707 18.52 7.0257 24.316 15.56 1.5034 2.2138 4.1406 7.1567 4.1406 7.7605 0 0.29533-18.058 9.4557-20.462 10.38-0.12718 0.0489-0.39605-0.45511-0.59749-1.12-0.91651-3.0251-4.7085-7.3537-8.0218-9.157-6.1575-3.3514-14.849-1.7912-20.157 3.6183-8.0154 8.1678-8.0334 22.718-0.0379 30.71 5.5242 5.5222 13.928 7.0169 20.293 3.6092 2.5467-1.3635 5.9259-4.943 7.2326-7.6614 0.61124-1.2715 1.2252-2.3155 1.3643-2.32 0.55157-0.0177 20.387 9.7154 20.387 10.004 0 0.16968-0.73583 1.7156-1.6352 3.4353-5.2365 10.013-13.399 16.638-23.941 19.43-2.7112 0.71804-3.8181 0.82297-9.6236 0.91231-4.6203 0.0711-7.3169-0.0322-9.12-0.34922zm-125.43-1.1999c-0.10495-0.31754-1.8027-6.145-2.6113-8.9633-0.15163-0.5285-1.0436-0.55814-14.443-0.48l-14.282 0.0833-1.3508 4.5884c-0.74291 2.5236-1.4115 4.6492-1.4858 4.7235s-6.2433 0.0975-13.709 0.0516l-13.574-0.0835 10.472-29.6c5.7594-16.28 12.378-34.987 14.707-41.571l4.2354-11.971 15.036 0.20683c8.27 0.11375 15.14 0.31684 15.265 0.45129 0.2008 0.21438 28.635 80.96 29.018 82.404 0.13982 0.52691-0.658 0.56-13.499 0.56-10.634 0-13.677-0.0883-13.78-0.4zm-9.457-32.48c-0.4876-1.4497-7.3507-25.032-7.3507-25.258 0-0.11473-0.0617-0.1469-0.13712-0.0715-0.10733 0.10733-4.2527 13.967-7.3844 24.69l-0.44396 1.52h15.612zm52.489 2.16v-30.72h-21.12v-21.76h66.56v21.751l-21.28 0.1686-0.0816 30.64-0.0816 30.64h-23.997zm137.39 5.7071c0.11696-13.757 0.21266-32.477 0.21266-41.6v-16.587h24v29.44h28.48v-29.448l23.84 0.1678 0.0812 41.52 0.0812 41.52h-24.002v-31.68h-28.48v31.68h-24.425zm-328.91 24.293c-0.0797-0.22-5.1217-18.688-11.205-41.04-6.0828-22.352-11.135-40.894-11.228-41.203-0.15885-0.53267 0.57197-0.55893 13.36-0.48l13.528 0.0835 5.0233 24.96c2.7628 13.728 5.0477 25.032 5.0775 25.12 0.0298 0.088 2.7556-11.144 6.0574-24.96l6.0031-25.12 18.2-0.1696 5.9054 25.107c3.2479 13.809 5.9814 25.032 6.0743 24.94 0.0929-0.0917 2.4077-11.352 5.144-25.022l4.9751-24.856 13.505-0.0835c8.754-0.0541 13.505 0.028 13.505 0.23329 0 0.3168-21.813 79.883-22.44 81.854l-0.33211 1.0436-25.345-0.1673-5.0258-23.2c-2.7642-12.76-5.1108-22.984-5.2146-22.72s-2.2149 9.768-4.6912 21.12c-2.4763 11.352-4.7229 21.612-4.9926 22.8l-0.49024 2.16h-12.624c-9.8089 0-12.657-0.0892-12.769-0.4zm373.7-93.038c-9.0649-0.95715-16.983-3.6417-23.456-7.9529-2.9541-1.9673-6.1643-4.8085-5.978-5.2908 0.0761-0.19701 2.825-4.4353 6.1088-9.4183l5.9704-9.0601 1.6694 1.501c5.6599 5.089 12.903 8.3157 20.391 9.0841 4.8758 0.50034 8.9508-0.2442 10.789-1.9713 1.0304-0.968 1.286-2.6616 0.52804-3.4991-1.3368-1.4772-2.9514-1.9844-11.975-3.7625-3.617-0.7127-7.865-1.6692-9.44-2.1254-10.082-2.9208-16.005-7.2344-19.181-13.969-1.5312-3.2466-2.0863-5.5957-2.3066-9.7602-0.42352-8.0077 1.8404-14.36 7.0866-19.884 4.0706-4.2864 9.1073-7.0648 15.497-8.5486 7.6078-1.7667 18.717-1.0986 27.101 1.6299 4.9407 1.6079 11.263 5.0455 14.829 8.0633l1.0902 0.92244-6.3063 8.86c-3.4684 4.873-6.3641 8.86-6.4348 8.86-0.0707 0-1.0354-0.63076-2.1439-1.4017-5.8358-4.0589-13.642-6.5983-20.284-6.5983-3.5458 0-5.3588 0.58121-6.0634 1.9438-0.68613 1.3268-0.57644 2.1567 0.41629 3.1495 1.1688 1.1688 3.8364 2.0206 11.146 3.559 7.145 1.5038 10.769 2.5025 14.69 4.0481 12.278 4.84 17.889 13.744 16.551 26.264-0.46853 4.384-1.0654 6.6466-2.5948 9.836-3.9262 8.1879-11.053 13.109-21.808 15.057-3.246 0.58793-12.237 0.85121-15.891 0.46534zm-236.7-0.3419c-9.996-1.1599-18.418-5.243-25.315-12.273-5.0746-5.1726-7.8988-10.009-9.9191-16.987-1.7522-6.0524-2.2751-14.537-1.2917-20.96 2.7746-18.122 14.742-30.71 32.91-34.617 4.4276-0.95226 13.719-1.0334 17.82-0.15555 11.164 2.3897 19.378 8.5557 25.081 18.826l1.1844 2.1331-4.0925 2.2306c-2.2509 1.2269-6.7463 3.676-9.9899 5.4425l-5.8974 3.2119-1.1388-1.925c-3.462-5.8522-9.5984-9.1138-15.581-8.2817-5.7983 0.80648-10.044 3.3995-13.016 7.9488-1.7782 2.7221-2.6028 4.7096-3.2415 7.8131-2.2226 10.8 2.986 21.386 12.098 24.588 2.8067 0.98646 5.8938 1.3108 8.7469 0.91907 3.0019-0.41221 6.8492-1.6438 8.4874-2.717 1.0915-0.71505 1.2-0.91593 1.2-2.2216v-1.4355h-14.4v-22.08h38.08v34.329l-3.2896 3.2353c-5.8355 5.7391-12.761 9.8018-19.992 11.727-5.3011 1.4117-12.711 1.913-18.443 1.2479zm57.965-1.1792-4.4-0.0988v-83.262l1 0.2c0.55 0.11 5.8765 0.2 11.837 0.2h10.837l0.1664 29.28h27.84l0.1664-29.28h23.674v83.2h-23.674l-0.166-31.84-28-0.1668v32.007l-7.44-0.0702c-4.092-0.0386-9.42-0.11467-11.84-0.16903zm101.84-30.481v-30.72h-20.8v-21.76h65.702l-0.21018 6.96c-0.11559 3.828-0.21052 8.796-0.21096 11.04l-7.8e-4 4.08h-20.8v61.12h-23.68zm-311.36-11.213v-41.613l23.76 0.10173c23.457 0.10043 23.793 0.11085 26.32 0.81669 11.482 3.2067 18.383 11.733 19.703 24.342 0.78637 7.5102-0.90544 14.772-4.7583 20.423-1.5768 2.313-4.7774 5.4056-7.1946 6.9518-1.0068 0.64405-1.8306 1.2132-1.8306 1.2647 0 0.0516 2.3917 5.0511 5.3149 11.11 2.9232 6.059 6.0812 12.636 7.0178 14.616l1.703 3.6h-27.013l-2.9813-7.28c-1.6397-4.004-4.0645-9.908-5.3884-13.12l-2.4071-5.84h-8.5661v26.24h-23.68zm41.325-7.0779c1.701-0.50963 3.6666-2.2713 4.1436-3.7138 0.48411-1.4639 0.45951-3.952-0.0489-4.9414-0.73464-1.4298-2.3531-2.8065-3.9559-3.3651-1.3854-0.48284-2.8001-0.56621-9.6242-0.56718l-8-1e-3 -0.1732 12.96h8.2095c5.3048 0 8.6481-0.13141 9.449-0.37138zm39.635 7.0914v-41.6h23.68v83.2h-23.68zm69.6-52.182c-18.624-2.2149-32.257-15.903-35.067-35.207-0.55066-3.783-0.47704-12.265 0.13866-15.974 1.0517-6.3357 3.491-12.666 6.7967-17.638 4.4972-6.7647 12.211-12.484 20.22-14.992 9.2637-2.9007 20.34-2.489 27.978 1.0398 7.0441 3.2546 13.113 9.2897 16.838 16.744l0.97467 1.9504-18.999 10.907-1.0975-2.0743c-2.2344-4.2233-6.441-7.3989-10.773-8.133-6.595-1.1175-13.947 3.021-17.219 9.6932-4.1305 8.422-2.9691 19.585 2.6992 25.944 5.3713 6.0264 13.968 7.4116 21.776 3.5086l2.374-1.1866v-3.2l-13.6-0.1728v-21.747h36.16v34.17l-3.28 3.3575c-6.6572 6.8145-13.486 10.657-22.033 12.399-3.7617 0.7666-10.196 1.0496-13.887 0.61071zm110.16-1.1773-8.24-0.091v-61.109h-19.84v-22.185l21.84 0.2123c12.012 0.11677 25.98 0.21242 31.04 0.21256l9.2 2.6e-4v21.76h-19.426l-0.20696 2.4483c-0.11382 1.3466-0.20695 15.171-0.20695 30.72v28.272l-2.96-0.0744c-1.628-0.0409-6.668-0.11533-11.2-0.1654zm30.996-7.0402c1.3009-4.004 7.4489-22.688 13.662-41.52l11.297-34.24 28.445-0.1608 13.41 41.04c7.3756 22.572 13.477 41.294 13.558 41.604 0.13989 0.53235-0.56129 0.55905-12.603 0.48l-12.751-0.08372-2.6195-9.6-13.078-0.0836c-7.1927-0.046-13.197 0.0354-13.342 0.18086-0.14548 0.14548-0.77158 2.1271-1.3913 4.4036-0.61976 2.2765-1.2033 4.3911-1.2967 4.6991-0.15806 0.52112-1.0547 0.56-12.913 0.56h-12.743zm46.209-24.8c8e-3 -0.62982-6.8661-25.838-7.0449-25.836-0.18595 2e-3 -7.077 25.239-7.0549 25.836 0.0114 0.30743 1.6441 0.4 7.0549 0.4 5.4161 0 7.0411-0.0923 7.0449-0.4zm39.675-9.52v-41.6h22.4v61.12h28.16v22.08h-50.56zm-377.36 41.04c-0.0661-0.132-0.0586-18.852 0.0165-41.6l0.13666-41.36 18.765 2e-3c20.275 2e-3 22.024 0.11277 27.725 1.755 1.584 0.45635 4.3296 1.5334 6.1012 2.3934 13.53 6.5679 20.963 19.89 20.933 37.517-0.0212 12.268-3.6966 22.338-10.886 29.827-6.2466 6.5066-15.039 10.479-25.16 11.367-4.3111 0.37819-37.446 0.46525-37.63 0.0989zm37.126-22.322c9.2957-2.1917 15.121-12.039 13.536-22.88-1.2819-8.7672-6.0279-14.167-13.645-15.524-1.5647-0.27882-4.8294-0.45583-8.5342-0.46273l-6-0.0112v39.36l6.32-5e-3c4.4392-3e-3 6.9162-0.14529 8.3233-0.47705zm45.837-19.038v-41.6h22.4v83.2h-22.4zm117.76 0v-41.6h22.4v83.2h-22.4z"/>
</svg>
