<?xml version="1.0" encoding="UTF-8"?>
<svg version="1.1" viewBox="0 0 24 24" xml:space="preserve" xmlns="http://www.w3.org/2000/svg" xmlns:xlink="http://www.w3.org/1999/xlink">
<defs>
  <clipPath id="mastodon-clip">
    <path d="m-2.69-3.75h29.7v31.1h-29.7zm20.5 12.4c0-1.02-0.26-1.83-0.782-2.43-0.538-0.601-1.24-0.909-2.12-0.909-1.01 0-1.78 0.389-2.29 1.17l-0.493 0.827-0.492-0.827c-0.507-0.779-1.27-1.17-2.29-1.17-0.875 0-1.58 0.309-2.12 0.909-0.522 0.6-0.782 1.41-0.782 2.43v5h1.98v-4.85c0-1.02 0.43-1.54 1.29-1.54 0.951 0 1.43 0.616 1.43 1.83v2.66h1.97v-2.66c0-1.22 0.477-1.83 1.43-1.83 0.86 0 1.29 0.519 1.29 1.54v4.85h1.98v-5" />
  </clipPath>
  <symbol viewBox="0 0 24 24" id="mastodon">
    <path d="m21.6 13.9c-0.29 1.47-2.59 3.12-5.24 3.4-1.38 0.184-2.74 0.368-4.18 0.276-2.37-0.092-4.24-0.551-4.24-0.551 0 0.184 0.014 0.459 0.043 0.643 0.308 2.29 2.32 2.48 4.22 2.57 1.92 0 3.63-0.46 3.63-0.46l0.079 1.65s-1.34 0.734-3.74 0.918c-1.32 0.091-2.96-0.092-4.87-0.551-4.14-1.1-4.85-5.51-4.96-10-0.034-1.28-0.013-2.57-0.013-3.58 0-4.59 3-5.97 3-5.97 1.51-0.734 4.11-1.01 6.81-1.01h0.067c2.7 0 5.3 0.276 6.81 1.01 0 0 3 1.38 3 5.97 0 0 0.037 3.3-0.419 5.69"
          clip-path="url(#mastodon-clip)" fill="currentColor" />
  </symbol>
  <symbol viewBox="0 0 24 24" id="bluesky">
    <path d="m5.82 3.46c2.57 1.93 5.34 5.84 6.35 7.94 1.02-2.1 3.78-6.01 6.35-7.94 1.85-1.39 4.86-2.47 4.86 0.959 0 0.685-0.393 5.75-0.623 6.58-0.8 2.86-3.72 3.59-6.31 3.15 4.53 0.772 5.69 3.33 3.2 5.88-4.73 4.86-6.8-1.22-7.33-2.77-0.0972-0.285-0.143-0.419-0.143-0.305-6.63e-4 -0.113-0.0462 0.02-0.143 0.305-0.53 1.56-2.6 7.63-7.33 2.77-2.49-2.56-1.34-5.11 3.2-5.88-2.59 0.442-5.51-0.288-6.31-3.15-0.23-0.823-0.623-5.89-0.623-6.58 0-3.43 3.01-2.35 4.86-0.959z"
          stroke-width=".0387" fill="currentColor" />
  </symbol>
</defs>
</svg>
